<svg xmlns="http://www.w3.org/2000/svg" viewBox="0 0 800 360" width="800" height="360">
  <defs>
    <linearGradient id="sky" x1="0" y1="0" x2="0" y2="1">
      <stop offset="0%" stop-color="#f3e8ff"/>
      <stop offset="50%" stop-color="#ddd6fe"/>
      <stop offset="100%" stop-color="#a78bfa" stop-opacity="0.7"/>
    </linearGradient>
    <linearGradient id="ground" x1="0" y1="0" x2="0" y2="1">
      <stop offset="0%" stop-color="#7c3aed" stop-opacity="0.3"/>
      <stop offset="100%" stop-color="#4c1d95"/>
    </linearGradient>
    <radialGradient id="glow" cx="70%" cy="20%" r="45%">
      <stop offset="0%" stop-color="#f3e8ff" stop-opacity="0.9"/>
      <stop offset="100%" stop-color="#a78bfa" stop-opacity="0"/>
    </radialGradient>
    <filter id="blur"><feGaussianBlur stdDeviation="12"/></filter>
  </defs>

  <rect width="800" height="360" fill="url(#sky)"/>
  <ellipse cx="560" cy="90" rx="180" ry="120" fill="url(#glow)" filter="url(#blur)"/>
  <circle cx="660" cy="55" r="38" fill="#fef9c3" opacity="0.85"/>

  <!-- Far field rows -->
  <g opacity="0.4">
    <!-- Row of corn silhouettes far back -->
    <g transform="translate(0,310) scale(0.6)">
      <g transform="translate(30,0)"><rect x="-4" y="-160" width="8" height="160" rx="4" fill="#7c3aed"/>
        <ellipse cx="0" cy="-165" rx="18" ry="35" fill="#6d28d9" transform="rotate(-8)"/>
        <path d="M-4,-140 Q-30,-120 -55,-85" stroke="#8b5cf6" stroke-width="4" fill="none"/>
        <path d="M4,-110 Q30,-92 55,-58" stroke="#8b5cf6" stroke-width="4" fill="none"/>
        <path d="M-4,-75 Q-28,-58 -50,-28" stroke="#8b5cf6" stroke-width="4" fill="none"/>
      </g>
      <g transform="translate(90,0)"><rect x="-4" y="-155" width="8" height="155" rx="4" fill="#6d28d9"/>
        <ellipse cx="0" cy="-160" rx="16" ry="32" fill="#5b21b6" transform="rotate(6)"/>
        <path d="M-4,-135 Q-28,-116 -52,-82" stroke="#7c3aed" stroke-width="4" fill="none"/>
        <path d="M4,-105 Q28,-88 52,-54" stroke="#7c3aed" stroke-width="4" fill="none"/>
        <path d="M-4,-70 Q-26,-54 -48,-24" stroke="#7c3aed" stroke-width="4" fill="none"/>
      </g>
      <g transform="translate(150,5)"><rect x="-4" y="-162" width="8" height="162" rx="4" fill="#7c3aed"/>
        <ellipse cx="0" cy="-167" rx="17" ry="33" fill="#6d28d9" transform="rotate(-5)"/>
        <path d="M-4,-142 Q-29,-123 -53,-89" stroke="#8b5cf6" stroke-width="4" fill="none"/>
        <path d="M4,-112 Q29,-95 53,-61" stroke="#8b5cf6" stroke-width="4" fill="none"/>
      </g>
      <g transform="translate(210,-3)"><rect x="-4" y="-158" width="8" height="158" rx="4" fill="#6d28d9"/>
        <ellipse cx="0" cy="-163" rx="16" ry="31" fill="#5b21b6" transform="rotate(7)"/>
        <path d="M-4,-138 Q-28,-119 -52,-85" stroke="#7c3aed" stroke-width="4" fill="none"/>
        <path d="M4,-108 Q28,-91 52,-57" stroke="#7c3aed" stroke-width="4" fill="none"/>
      </g>
      <g transform="translate(270,2)"><rect x="-4" y="-160" width="8" height="160" rx="4" fill="#7c3aed"/>
        <ellipse cx="0" cy="-165" rx="18" ry="34" fill="#6d28d9" transform="rotate(-9)"/>
        <path d="M-4,-145 Q-30,-126 -54,-92" stroke="#8b5cf6" stroke-width="4" fill="none"/>
        <path d="M4,-115 Q30,-98 54,-64" stroke="#8b5cf6" stroke-width="4" fill="none"/>
        <path d="M-4,-80 Q-29,-63 -51,-33" stroke="#8b5cf6" stroke-width="4" fill="none"/>
      </g>
      <!-- Repeat across width -->
      <use href="#" transform="translate(330,0)"/>
      <g transform="translate(330,-2)"><rect x="-4" y="-157" width="8" height="157" rx="4" fill="#6d28d9"/>
        <ellipse cx="0" cy="-162" rx="16" ry="32" fill="#5b21b6" transform="rotate(5)"/>
        <path d="M-4,-137 Q-27,-118 -51,-84" stroke="#7c3aed" stroke-width="4" fill="none"/>
        <path d="M4,-107 Q27,-90 51,-56" stroke="#7c3aed" stroke-width="4" fill="none"/>
      </g>
      <g transform="translate(390,4)"><rect x="-4" y="-163" width="8" height="163" rx="4" fill="#7c3aed"/>
        <ellipse cx="0" cy="-168" rx="18" ry="34" fill="#6d28d9" transform="rotate(-7)"/>
        <path d="M-4,-148 Q-31,-129 -55,-95" stroke="#8b5cf6" stroke-width="4" fill="none"/>
        <path d="M4,-118 Q31,-101 55,-67" stroke="#8b5cf6" stroke-width="4" fill="none"/>
      </g>
      <g transform="translate(450,-1)"><rect x="-4" y="-156" width="8" height="156" rx="4" fill="#6d28d9"/>
        <ellipse cx="0" cy="-161" rx="16" ry="31" fill="#5b21b6" transform="rotate(8)"/>
        <path d="M-4,-136 Q-28,-117 -52,-83" stroke="#7c3aed" stroke-width="4" fill="none"/>
        <path d="M4,-106 Q28,-89 52,-55" stroke="#7c3aed" stroke-width="4" fill="none"/>
      </g>
      <g transform="translate(510,3)"><rect x="-4" y="-161" width="8" height="161" rx="4" fill="#7c3aed"/>
        <ellipse cx="0" cy="-166" rx="17" ry="33" fill="#6d28d9" transform="rotate(-6)"/>
        <path d="M-4,-146 Q-30,-127 -54,-93" stroke="#8b5cf6" stroke-width="4" fill="none"/>
        <path d="M4,-116 Q30,-99 54,-65" stroke="#8b5cf6" stroke-width="4" fill="none"/>
      </g>
      <g transform="translate(570,-2)"><rect x="-4" y="-158" width="8" height="158" rx="4" fill="#6d28d9"/>
        <ellipse cx="0" cy="-163" rx="16" ry="32" fill="#5b21b6" transform="rotate(6)"/>
        <path d="M-4,-138 Q-28,-119 -52,-85" stroke="#7c3aed" stroke-width="4" fill="none"/>
        <path d="M4,-108 Q28,-91 52,-57" stroke="#7c3aed" stroke-width="4" fill="none"/>
      </g>
      <g transform="translate(630,1)"><rect x="-4" y="-160" width="8" height="160" rx="4" fill="#7c3aed"/>
        <ellipse cx="0" cy="-165" rx="18" ry="34" fill="#6d28d9" transform="rotate(-8)"/>
        <path d="M-4,-145 Q-31,-126 -55,-92" stroke="#8b5cf6" stroke-width="4" fill="none"/>
        <path d="M4,-115 Q31,-98 55,-64" stroke="#8b5cf6" stroke-width="4" fill="none"/>
      </g>
      <g transform="translate(690,-3)"><rect x="-4" y="-155" width="8" height="155" rx="4" fill="#6d28d9"/>
        <ellipse cx="0" cy="-160" rx="16" ry="31" fill="#5b21b6" transform="rotate(7)"/>
        <path d="M-4,-135 Q-27,-116 -51,-82" stroke="#7c3aed" stroke-width="4" fill="none"/>
        <path d="M4,-105 Q27,-88 51,-54" stroke="#7c3aed" stroke-width="4" fill="none"/>
      </g>
      <g transform="translate(750,2)"><rect x="-4" y="-159" width="8" height="159" rx="4" fill="#7c3aed"/>
        <ellipse cx="0" cy="-164" rx="17" ry="33" fill="#6d28d9" transform="rotate(-5)"/>
        <path d="M-4,-144 Q-30,-125 -54,-91" stroke="#8b5cf6" stroke-width="4" fill="none"/>
        <path d="M4,-114 Q30,-97 54,-63" stroke="#8b5cf6" stroke-width="4" fill="none"/>
      </g>
      <g transform="translate(810,-1)"><rect x="-4" y="-157" width="8" height="157" rx="4" fill="#6d28d9"/>
        <ellipse cx="0" cy="-162" rx="16" ry="32" fill="#5b21b6" transform="rotate(6)"/>
        <path d="M-4,-137 Q-28,-118 -52,-84" stroke="#7c3aed" stroke-width="4" fill="none"/>
        <path d="M4,-107 Q28,-90 52,-56" stroke="#7c3aed" stroke-width="4" fill="none"/>
      </g>
      <g transform="translate(870,3)"><rect x="-4" y="-162" width="8" height="162" rx="4" fill="#7c3aed"/>
        <ellipse cx="0" cy="-167" rx="18" ry="34" fill="#6d28d9" transform="rotate(-7)"/>
        <path d="M-4,-147 Q-31,-128 -55,-94" stroke="#8b5cf6" stroke-width="4" fill="none"/>
        <path d="M4,-117 Q31,-100 55,-66" stroke="#8b5cf6" stroke-width="4" fill="none"/>
      </g>
      <g transform="translate(930,-2)"><rect x="-4" y="-155" width="8" height="155" rx="4" fill="#6d28d9"/>
        <ellipse cx="0" cy="-160" rx="16" ry="31" fill="#5b21b6" transform="rotate(8)"/>
        <path d="M-4,-135 Q-28,-116 -52,-82" stroke="#7c3aed" stroke-width="4" fill="none"/>
        <path d="M4,-105 Q28,-88 52,-54" stroke="#7c3aed" stroke-width="4" fill="none"/>
      </g>
    </g>
  </g>

  <!-- Front row corn plants -->
  <g transform="translate(0,360)">
    <g transform="translate(0,0)"><rect x="-7" y="-280" width="14" height="280" rx="7" fill="#6d28d9"/>
      <ellipse cx="0" cy="-286" rx="28" ry="55" fill="#5b21b6" transform="rotate(-10)"/>
      <path d="M-7,-250 Q-50,-218 -85,-168" stroke="#8b5cf6" stroke-width="7" fill="none"/>
      <path d="M7,-210 Q52,-180 87,-130" stroke="#8b5cf6" stroke-width="7" fill="none"/>
      <path d="M-7,-162 Q-48,-135 -80,-90" stroke="#8b5cf6" stroke-width="7" fill="none"/>
      <path d="M7,-118 Q48,-92 80,-50" stroke="#8b5cf6" stroke-width="7" fill="none"/>
      <!-- Corn cob -->
      <rect x="-10" y="-200" width="20" height="45" rx="10" fill="#fbbf24" opacity="0.9"/>
    </g>
    <g transform="translate(90,0)"><rect x="-7" y="-265" width="14" height="265" rx="7" fill="#7c3aed"/>
      <ellipse cx="0" cy="-271" rx="26" ry="52" fill="#6d28d9" transform="rotate(8)"/>
      <path d="M-7,-238 Q-48,-207 -82,-158" stroke="#a78bfa" stroke-width="7" fill="none"/>
      <path d="M7,-198 Q50,-169 84,-120" stroke="#a78bfa" stroke-width="7" fill="none"/>
      <path d="M-7,-152 Q-46,-126 -78,-82" stroke="#a78bfa" stroke-width="7" fill="none"/>
      <path d="M7,-108 Q46,-83 78,-42" stroke="#a78bfa" stroke-width="7" fill="none"/>
      <rect x="-10" y="-186" width="20" height="42" rx="10" fill="#f59e0b" opacity="0.9"/>
    </g>
    <g transform="translate(185,0)"><rect x="-7" y="-275" width="14" height="275" rx="7" fill="#6d28d9"/>
      <ellipse cx="0" cy="-281" rx="27" ry="54" fill="#5b21b6" transform="rotate(-12)"/>
      <path d="M-7,-248 Q-51,-217 -86,-167" stroke="#8b5cf6" stroke-width="7" fill="none"/>
      <path d="M7,-208 Q51,-179 86,-129" stroke="#8b5cf6" stroke-width="7" fill="none"/>
      <path d="M-7,-160 Q-49,-133 -81,-89" stroke="#8b5cf6" stroke-width="7" fill="none"/>
      <path d="M7,-116 Q49,-90 81,-48" stroke="#8b5cf6" stroke-width="7" fill="none"/>
      <rect x="-10" y="-196" width="20" height="44" rx="10" fill="#fbbf24" opacity="0.9"/>
    </g>
    <g transform="translate(285,0)"><rect x="-7" y="-260" width="14" height="260" rx="7" fill="#7c3aed"/>
      <ellipse cx="0" cy="-266" rx="25" ry="51" fill="#6d28d9" transform="rotate(9)"/>
      <path d="M-7,-233 Q-47,-203 -81,-154" stroke="#a78bfa" stroke-width="7" fill="none"/>
      <path d="M7,-193 Q49,-165 83,-116" stroke="#a78bfa" stroke-width="7" fill="none"/>
      <path d="M-7,-148 Q-45,-122 -77,-78" stroke="#a78bfa" stroke-width="7" fill="none"/>
      <path d="M7,-104 Q45,-79 77,-38" stroke="#a78bfa" stroke-width="7" fill="none"/>
      <rect x="-10" y="-182" width="20" height="41" rx="10" fill="#f59e0b" opacity="0.9"/>
    </g>
    <g transform="translate(385,0)"><rect x="-7" y="-278" width="14" height="278" rx="7" fill="#6d28d9"/>
      <ellipse cx="0" cy="-284" rx="28" ry="55" fill="#5b21b6" transform="rotate(-7)"/>
      <path d="M-7,-252 Q-52,-221 -87,-171" stroke="#8b5cf6" stroke-width="7" fill="none"/>
      <path d="M7,-212 Q53,-183 88,-133" stroke="#8b5cf6" stroke-width="7" fill="none"/>
      <path d="M-7,-164 Q-50,-137 -82,-93" stroke="#8b5cf6" stroke-width="7" fill="none"/>
      <path d="M7,-120 Q50,-94 82,-52" stroke="#8b5cf6" stroke-width="7" fill="none"/>
      <rect x="-10" y="-200" width="20" height="45" rx="10" fill="#fbbf24" opacity="0.9"/>
    </g>
    <g transform="translate(485,0)"><rect x="-7" y="-268" width="14" height="268" rx="7" fill="#7c3aed"/>
      <ellipse cx="0" cy="-274" rx="26" ry="52" fill="#6d28d9" transform="rotate(11)"/>
      <path d="M-7,-241 Q-49,-211 -83,-162" stroke="#a78bfa" stroke-width="7" fill="none"/>
      <path d="M7,-201 Q51,-173 85,-124" stroke="#a78bfa" stroke-width="7" fill="none"/>
      <path d="M-7,-154 Q-47,-128 -79,-84" stroke="#a78bfa" stroke-width="7" fill="none"/>
      <path d="M7,-110 Q47,-85 79,-44" stroke="#a78bfa" stroke-width="7" fill="none"/>
      <rect x="-10" y="-188" width="20" height="43" rx="10" fill="#f59e0b" opacity="0.9"/>
    </g>
    <g transform="translate(585,0)"><rect x="-7" y="-272" width="14" height="272" rx="7" fill="#6d28d9"/>
      <ellipse cx="0" cy="-278" rx="27" ry="54" fill="#5b21b6" transform="rotate(-9)"/>
      <path d="M-7,-245 Q-51,-215 -86,-165" stroke="#8b5cf6" stroke-width="7" fill="none"/>
      <path d="M7,-205 Q51,-177 86,-127" stroke="#8b5cf6" stroke-width="7" fill="none"/>
      <path d="M-7,-158 Q-49,-131 -81,-87" stroke="#8b5cf6" stroke-width="7" fill="none"/>
      <path d="M7,-114 Q49,-88 81,-46" stroke="#8b5cf6" stroke-width="7" fill="none"/>
      <rect x="-10" y="-193" width="20" height="44" rx="10" fill="#fbbf24" opacity="0.9"/>
    </g>
    <g transform="translate(685,0)"><rect x="-7" y="-263" width="14" height="263" rx="7" fill="#7c3aed"/>
      <ellipse cx="0" cy="-269" rx="25" ry="51" fill="#6d28d9" transform="rotate(7)"/>
      <path d="M-7,-236 Q-48,-206 -82,-157" stroke="#a78bfa" stroke-width="7" fill="none"/>
      <path d="M7,-196 Q50,-168 84,-119" stroke="#a78bfa" stroke-width="7" fill="none"/>
      <path d="M-7,-150 Q-46,-124 -78,-80" stroke="#a78bfa" stroke-width="7" fill="none"/>
      <path d="M7,-106 Q46,-81 78,-40" stroke="#a78bfa" stroke-width="7" fill="none"/>
      <rect x="-10" y="-184" width="20" height="42" rx="10" fill="#f59e0b" opacity="0.9"/>
    </g>
    <g transform="translate(785,0)"><rect x="-7" y="-276" width="14" height="276" rx="7" fill="#6d28d9"/>
      <ellipse cx="0" cy="-282" rx="28" ry="55" fill="#5b21b6" transform="rotate(-11)"/>
      <path d="M-7,-249 Q-52,-219 -87,-169" stroke="#8b5cf6" stroke-width="7" fill="none"/>
      <path d="M7,-209 Q52,-181 87,-131" stroke="#8b5cf6" stroke-width="7" fill="none"/>
      <path d="M-7,-162 Q-50,-135 -82,-91" stroke="#8b5cf6" stroke-width="7" fill="none"/>
      <path d="M7,-118 Q50,-92 82,-50" stroke="#8b5cf6" stroke-width="7" fill="none"/>
      <rect x="-10" y="-198" width="20" height="45" rx="10" fill="#fbbf24" opacity="0.9"/>
    </g>
  </g>

  <!-- Ground -->
  <rect x="0" y="348" width="800" height="12" fill="#4c1d95" opacity="0.8"/>

  <!-- Overlay -->
  <linearGradient id="ov" x1="0" y1="1" x2="0" y2="0">
    <stop offset="0%" stop-color="#4c1d95" stop-opacity="0.55"/>
    <stop offset="35%" stop-color="#6d28d9" stop-opacity="0.1"/>
    <stop offset="100%" stop-color="#7c3aed" stop-opacity="0"/>
  </linearGradient>
  <rect width="800" height="360" fill="url(#ov)"/>
</svg>
